<svg width="58" height="58" viewBox="0 0 58 58" fill="none" xmlns="http://www.w3.org/2000/svg">
<circle cx="29" cy="29" r="29" fill="white"/>
<circle cx="29" cy="29" r="25" stroke="#CE030A" stroke-dasharray="3 3"/>
<path d="M28.8885 35.776C31.6085 32.352 36.5685 27.936 36.5685 23.488C36.5685 19.424 33.4005 16.832 29.4645 16.832C25.5285 16.832 21.9445 20.064 21.9445 24.096C21.9445 25.344 22.7445 26.432 24.2805 26.432C27.3525 26.432 25.5925 21.248 29.2725 21.248C30.5845 21.248 31.5765 22.4 31.5765 23.712C31.5765 24.864 31.0325 25.856 30.4565 26.688C28.0245 30.208 25.1445 33.088 22.4885 36.256C22.1685 36.64 21.7525 37.216 21.7525 37.888C21.7525 39.36 22.8405 40 24.2485 40H34.9365C36.1525 40 37.2405 39.36 37.2405 37.888C37.2405 36.416 36.1525 35.776 34.7445 35.776H28.8885Z" fill="#CE030A"/>
</svg>
