<svg width="217" height="61" viewBox="0 0 217 61" fill="none" xmlns="http://www.w3.org/2000/svg">
<path d="M21.9322 5.16596L132.936 9.63477L201.604 8.02462L216.064 16.5293L210.37 31.0146L213.681 48.5889L206.338 53.8752L150.022 55.1054L79.8094 54.3624C75.6809 50.855 71.8855 47.7296 71.4347 47.6005C70.3067 47.3412 45.541 51.4599 45.541 51.4599L27.3711 49.5623L23.3841 44.4711L22.9484 30.778L15.6823 27.7664C15.6823 27.7664 14.6626 21.4228 14.3341 20.7873C14.2243 20.5966 13.001 19.3226 11.5569 17.7306L11.9189 10.1265L21.9322 5.16596Z" fill="#CE030A"/>
<g opacity="0.45">
<g opacity="0.45">
<path opacity="0.45" d="M1.52853 10.6044L1.18661 17.0678L1.52853 10.6044Z" fill="white"/>
</g>
</g>
<path d="M12.147 10.0647L22.2736 5.10483L133.164 9.57305L201.833 7.9629L216.293 16.4676L210.598 30.9529L213.909 48.5272L206.567 53.7501L206 53.8105L210.246 50.7267L207.827 33.9176L201.92 34.8379L207.314 30.8726L212.629 18.6671L198.169 10.1624L132.787 11.6627L132.167 14.6386L129.84 11.7743L129.5 11.7725L18.6098 7.30432L12.1267 11.2055L12.147 10.0647Z" fill="white"/>
<path d="M11.6872 16.7812C14.1642 17.618 16.7522 18.5821 16.8598 18.8996C17.075 19.5346 17.0494 27.3306 17.0494 27.3306L24.8216 27.3658L26.9442 29.0247L26.6969 42.9044L35.9719 48.1787L53.6298 48.8404L70.685 45.1888C74.7295 47.0479 83.2783 50.3879 83.2783 50.3879L114.765 50.4872L151.229 50.9291L157.498 48.7431L159.043 51.0329L209.437 51.6101L208.748 52.1136L206.111 53.8747L150.022 55.1062L79.8095 54.3632L68.7814 50.3131L45.3135 51.5229L27.1435 49.6253L23.2676 44.6614L22.8308 31.0317L22.7175 31.0311L22.7209 30.841L15.7946 27.8312C15.5884 26.6892 14.7715 21.6777 14.5563 21.0427C14.5563 21.0427 14.5574 20.9794 14.4453 20.9154C14.4464 20.852 14.4475 20.7887 14.4475 20.7887C14.3377 20.5979 13.2265 19.3879 11.7813 17.8593L11.6872 16.7812Z" fill="#770004"/>
<path d="M120.793 37.6393V20.3608H131.527V24.374H125.269V37.6393H120.793Z" fill="white"/>
<path d="M145.032 37.6393V30.8722H138.383V37.6393H133.907V20.3608H138.383V26.809H145.032V20.3608H149.508V37.6393H145.032Z" fill="white"/>
<path d="M175.483 37.6393V24.374H170.255V20.3608H185.215V24.374H179.961V37.6393H175.483Z" fill="white"/>
<path d="M163.669 37.6373V27.7924L156.544 37.6373H152.801V20.3635H157.277V30.106L164.282 20.3635H168.147V37.6373H163.669Z" fill="white"/>
<path d="M95.071 37.6393V27.3708L90.602 32.7955L86.1332 27.3708V37.6393H81.6573V20.3608H86.0746L90.602 26.302L95.1296 20.3608H99.5468V37.6393H95.071Z" fill="white"/>
<path d="M108.044 31.5622H112.204L110.124 26.1447L108.044 31.5622ZM114.537 37.6368L113.6 35.2159H106.641L105.704 37.6368H101.205L108.089 20.3606H112.228L119.114 37.6368H114.537Z" fill="white"/>
<path d="M47 23.8716C47.0043 21.7849 47.8221 19.7849 49.2742 18.3096C50.7264 16.8342 52.6946 16.0038 54.7479 16H72.6352V20.0013H54.7526C53.7437 20.0056 52.7773 20.4147 52.0636 21.1396C51.35 21.8644 50.9468 22.8463 50.9419 23.8716L50.9185 30.5888C50.8368 31.4494 50.477 32.2583 49.8952 32.8892C49.3134 33.5201 48.5424 33.9373 47.7027 34.0759L47 34.1854V23.8716Z" fill="white"/>
<path d="M47.0009 42.0001V37.9988H64.8882C65.8974 37.9938 66.8638 37.5841 67.5774 36.859C68.2909 36.1337 68.694 35.1516 68.6989 34.1261V27.7517C68.7039 26.8269 69.0321 25.934 69.6251 25.2324C70.218 24.5309 71.037 24.0663 71.9358 23.9218L72.6385 23.8147V34.1261C72.6341 36.2131 71.8165 38.2133 70.3643 39.689C68.9123 41.1647 66.9441 41.9956 64.8905 42.0001H47.0009Z" fill="white"/>
<path d="M62.1543 34.1993V29.027L59.8214 31.8571L57.491 29.027V34.1993H54.4016V24.0212H57.327L59.8214 27.2941L62.3159 24.0212H65.2413V34.1993H62.1543Z" fill="white"/>
</svg>
