<svg width="330" height="62" viewBox="0 0 330 62" fill="none" xmlns="http://www.w3.org/2000/svg">
<path d="M175.967 51.6012V10.3989H201.563V19.9687H186.64V51.6012H175.967Z" fill="white"/>
<path d="M233.768 51.6012V35.4644H217.912V51.6012H207.238V10.3989H217.912V25.7753H233.768V10.3989H244.441V51.6012H233.768Z" fill="white"/>
<path d="M306.381 51.6012V19.9687H293.915V10.3989H329.587V19.9687H317.06V51.6012H306.381Z" fill="white"/>
<path d="M278.209 51.5967V28.1204L261.219 51.5967H252.294V10.4055H262.967V33.6374L279.672 10.4055H288.888V51.5967H278.209Z" fill="white"/>
<path d="M114.63 51.6012V27.1149L103.973 40.0507L93.3168 27.1149V51.6012H82.6434V10.3989H93.1771L103.973 24.5663L114.77 10.3989H125.303V51.6012H114.63Z" fill="white"/>
<path d="M145.566 37.1101H155.485L150.526 24.1914L145.566 37.1101ZM161.048 51.5955L158.814 45.8227H142.221L139.987 51.5955H129.258L145.673 10.3987H155.542L171.962 51.5955H161.048Z" fill="white"/>
<path d="M0 18.7707C0.0103344 13.7946 1.96038 9.02548 5.42318 5.50741C8.88598 1.98932 13.5794 0.00899807 18.4757 0H61.1299V9.54141H18.4869C16.081 9.55185 13.7765 10.5274 12.0747 12.2558C10.373 13.9842 9.4116 16.3256 9.39986 18.7707L9.34399 34.7885C9.14931 36.8407 8.29131 38.7695 6.90396 40.2741C5.51664 41.7785 3.67813 42.7734 1.67555 43.1039L0 43.365V18.7707Z" fill="white"/>
<path d="M0.00244141 62.0001V52.4584H42.6564C45.063 52.4466 47.3674 51.4697 49.0691 49.7405C50.7705 48.0111 51.7318 45.6691 51.7436 43.2237V28.0232C51.7553 25.8179 52.5381 23.6886 53.952 22.0157C55.366 20.3428 57.3189 19.2351 59.4622 18.8904L61.1378 18.635V43.2237C61.1273 48.2003 59.1776 52.97 55.7148 56.489C52.2523 60.0079 47.5589 61.9893 42.662 62.0001H0.00244141Z" fill="white"/>
<path d="M36.137 43.3974V31.0634L30.5741 37.8122L25.0169 31.0634V43.3974H17.65V19.1267H24.6259L30.5741 26.9313L36.5224 19.1267H43.4983V43.3974H36.137Z" fill="white"/>
</svg>
