<svg width="52" height="50" viewBox="0 0 52 50" fill="none" xmlns="http://www.w3.org/2000/svg">
<path d="M44.5618 29.9448C45.5872 29.4667 46.2453 28.5356 46.2114 27.4591C46.2715 26.4168 45.6994 25.3573 44.7 24.8871L36.0638 20.2539C35.7221 20.0231 35.4146 19.6984 35.3635 19.2541L34.3326 9.51412C34.2048 8.40342 33.4703 7.49759 32.4366 7.12136C31.403 6.74514 30.2581 6.96694 29.4462 7.73562L22.5239 14.4745C22.1992 14.7819 21.8489 14.8673 21.3448 14.7902L11.751 12.7882C10.6489 12.5999 9.56377 12.9499 8.93984 13.787C8.31591 14.6241 8.09343 15.8201 8.60577 16.7515L12.8579 25.5355C13.0372 25.9201 12.9943 26.3301 12.8575 26.706L7.97666 35.1456C7.60908 35.8632 7.4892 36.7773 7.75383 37.5121C8.25753 38.7596 9.4705 39.5204 10.8033 39.367L20.4238 38.0797C20.8681 38.0286 21.2439 38.1654 21.5514 38.4902L28.1877 45.6944C28.4951 46.0191 28.9308 46.2841 29.3066 46.4209C30.0584 46.6945 30.947 46.5922 31.716 46.2336C32.391 45.8408 32.9808 45.0977 33.0665 44.2776L34.7524 34.6751C34.7952 34.265 35.12 33.9575 35.5045 33.7782L44.5618 29.9448Z" fill="white"/>
</svg>
