<svg width="22" height="21" viewBox="0 0 22 21" fill="none" xmlns="http://www.w3.org/2000/svg">
<path d="M20.7447 10.1348C21.1704 9.76247 21.3567 9.22381 21.1905 8.7117C21.0742 8.20292 20.652 7.7739 20.1067 7.68736L15.3152 6.66577C15.119 6.60256 14.9262 6.48947 14.8397 6.28329L12.9883 1.75073C12.7723 1.23528 12.2935 0.902687 11.7448 0.866023C11.1962 0.82936 10.6774 1.0953 10.3947 1.57741L8.00982 5.77678C7.89673 5.96963 7.74044 6.05938 7.48771 6.09259L2.60291 6.46757C2.04759 6.53067 1.57536 6.84981 1.39239 7.33859C1.20943 7.82737 1.26919 8.43257 1.64488 8.80838L4.90967 12.4334C5.0493 12.593 5.08585 12.7959 5.07252 12.9954L3.90462 17.727C3.82808 18.1227 3.89784 18.5782 4.12723 18.8942C4.5428 19.4229 5.23108 19.6192 5.84962 19.36L10.2891 17.4021C10.4953 17.3157 10.6948 17.329 10.8876 17.4421L15.077 19.9766C15.2698 20.0897 15.5159 20.1562 15.7154 20.1695C16.1144 20.1962 16.5268 20.0234 16.846 19.7441C17.1154 19.4615 17.2951 19.0226 17.222 18.6169L16.694 13.772C16.6575 13.5691 16.7706 13.3763 16.9302 13.2366L20.7447 10.1348Z" fill="white"/>
</svg>
