<svg width="56" height="55" viewBox="0 0 56 55" fill="none" xmlns="http://www.w3.org/2000/svg">
<path d="M44.7914 36.5198C45.9011 36.3004 46.7623 35.5537 46.9866 34.5005C47.2939 33.503 46.9915 32.3377 46.1335 31.6425L38.8556 25.082C38.579 24.7763 38.3581 24.3876 38.4145 23.9441L39.7398 14.2419C39.881 13.1331 39.3842 12.0783 38.4706 11.4662C37.5569 10.8541 36.3924 10.796 35.4206 11.3483L27.0909 16.2375C26.7022 16.4584 26.3417 16.4576 25.8707 16.2624L17.0348 12.0276C16.0098 11.5816 14.8728 11.6622 14.0671 12.3259C13.2615 12.9895 12.7598 14.0976 13.0348 15.1242L15.0651 24.6675C15.1473 25.0837 15.0078 25.4715 14.7852 25.8038L8.03115 32.8316C7.50292 33.4405 7.16823 34.2993 7.24965 35.0759C7.44074 36.4073 8.43665 37.4356 9.76725 37.6049L19.4146 38.6528C19.8581 38.7093 20.1903 38.9318 20.4113 39.3206L25.1335 47.8995C25.3544 48.2882 25.7141 48.6495 26.0463 48.8721C26.7108 49.3173 27.5979 49.4302 28.4301 49.2657C29.1793 49.0456 29.9293 48.465 30.2084 47.6892L34.1384 38.7694C34.2779 38.3815 34.6666 38.1605 35.0827 38.0783L44.7914 36.5198Z" fill="white"/>
</svg>
