<svg width="26" height="25" viewBox="0 0 26 25" fill="none" xmlns="http://www.w3.org/2000/svg">
<path d="M21.9228 14.8171C22.4353 14.5781 22.7643 14.1127 22.7474 13.5745C22.7774 13.0535 22.4915 12.5238 21.9918 12.2888L17.6747 9.97272C17.5039 9.85736 17.3502 9.69502 17.3246 9.47293L16.8093 4.60401C16.7454 4.04878 16.3782 3.59596 15.8615 3.40789C15.3448 3.21982 14.7725 3.3307 14.3666 3.71495L10.9063 7.08363C10.7439 7.23733 10.5688 7.27999 10.3168 7.24148L5.52096 6.24069C4.97005 6.14656 4.4276 6.32151 4.11571 6.73996C3.80381 7.15841 3.6926 7.7563 3.94871 8.22189L6.0743 12.613C6.16393 12.8052 6.14251 13.0102 6.07412 13.1981L3.63423 17.4169C3.45047 17.7756 3.39055 18.2326 3.52284 18.5999C3.77463 19.2235 4.38098 19.6038 5.04725 19.5272L9.85642 18.8837C10.0785 18.8581 10.2664 18.9265 10.4201 19.0888L13.7375 22.6901C13.8912 22.8525 14.109 22.9849 14.2969 23.0533C14.6727 23.1901 15.1168 23.139 15.5013 22.9597C15.8387 22.7634 16.1335 22.3919 16.1764 21.9819L17.0191 17.1817C17.0405 16.9767 17.2029 16.823 17.3951 16.7334L21.9228 14.8171Z" fill="white"/>
</svg>
