<svg width="10" height="10" viewBox="0 0 10 10" fill="none" xmlns="http://www.w3.org/2000/svg">
<path d="M9.78082 4.32405C9.98078 4.12409 10.0558 3.84915 9.95579 3.59921C9.8808 3.34926 9.65585 3.14931 9.38091 3.12431L6.95645 2.77439C6.85647 2.74939 6.75649 2.6994 6.7065 2.59943L5.63174 0.399912C5.50677 0.149967 5.25682 0 4.98188 0C4.70694 0 4.457 0.149967 4.33203 0.399912L3.28226 2.57443C3.23227 2.67441 3.15729 2.7244 3.03231 2.74939L0.607848 3.09932C0.332908 3.14931 0.107958 3.32427 0.0329743 3.57421C-0.0420092 3.82416 0.00797981 4.12409 0.207936 4.29905L1.95755 5.99868C2.03253 6.07366 2.05753 6.17364 2.05753 6.27362L1.63262 8.67309C1.60763 8.87304 1.65762 9.09799 1.78259 9.24796C2.00754 9.49791 2.35746 9.57289 2.6574 9.42292L4.80692 8.29817C4.9069 8.24818 5.00688 8.24818 5.10686 8.29817L7.28138 9.42292C7.38135 9.47291 7.50633 9.49791 7.6063 9.49791C7.80626 9.49791 8.00622 9.39793 8.15618 9.24796C8.28116 9.09799 8.35614 8.87304 8.30615 8.67309L7.88124 6.27362C7.85625 6.17364 7.90624 6.07366 7.98122 5.99868L9.78082 4.32405Z" fill="white"/>
</svg>
