<svg width="26" height="25" viewBox="0 0 26 25" fill="none" xmlns="http://www.w3.org/2000/svg">
<path d="M21.694 8.42915C21.933 7.91658 21.8859 7.34857 21.527 6.94722C21.2151 6.52877 20.6556 6.30685 20.1217 6.44794L15.3259 7.44873C15.1209 7.47015 14.8988 7.44459 14.7364 7.29089L11.212 3.89233C10.8062 3.50808 10.2338 3.3972 9.71711 3.58527C9.20039 3.77334 8.83323 4.22616 8.76934 4.78139L8.28388 9.58623C8.25832 9.80833 8.15159 9.95357 7.93381 10.086L3.61667 12.4021C3.13415 12.6841 2.83106 13.1668 2.86111 13.6878C2.89116 14.2089 3.19027 14.7384 3.68575 14.9304L8.13656 16.9279C8.32878 17.0175 8.44414 17.1883 8.51253 17.3762L9.3553 22.1764C9.4451 22.5693 9.69293 22.9578 10.0304 23.1542C10.6241 23.4701 11.3331 23.3716 11.7942 22.8846L15.0646 19.3004C15.2183 19.1381 15.4062 19.0697 15.6283 19.0952L20.4844 19.7216C20.7065 19.7472 20.9585 19.7087 21.1464 19.6403C21.5222 19.5035 21.8296 19.1788 22.0088 18.7944C22.1411 18.4271 22.1282 17.953 21.8974 17.6114L19.4575 13.3925C19.3422 13.2217 19.3677 12.9996 19.4574 12.8074L21.694 8.42915Z" fill="white"/>
</svg>
