<svg width="14" height="14" viewBox="0 0 14 14" fill="none" xmlns="http://www.w3.org/2000/svg">
<path d="M10.6854 4.38902C10.7766 4.12136 10.7226 3.84155 10.5226 3.66135C10.3451 3.47013 10.055 3.38993 9.7972 3.4888L7.46707 4.24444C7.36633 4.26612 7.25455 4.26536 7.16558 4.1977L5.23066 2.698C5.00824 2.52884 4.71777 2.50453 4.47104 2.62583C4.2243 2.74713 4.06616 2.99199 4.06428 3.27143L4.08159 5.68602C4.08084 5.79779 4.0356 5.87574 3.93448 5.9533L1.91312 7.33699C1.68844 7.50315 1.56376 7.75941 1.60674 8.01679C1.64972 8.27418 1.82691 8.52129 2.08355 8.59008L4.40353 9.34343C4.50391 9.37764 4.57045 9.45633 4.61456 9.54605L5.29187 11.8868C5.35766 12.0773 5.50176 12.2571 5.68008 12.3366C5.99223 12.4616 6.33934 12.3745 6.54234 12.1076L7.97512 10.1499C8.04278 10.0609 8.1325 10.0168 8.24428 10.0176L10.692 10.0676C10.8037 10.0683 10.9269 10.0356 11.0166 9.99149C11.1961 9.90327 11.3314 9.72533 11.3998 9.52459C11.4458 9.33487 11.4139 9.09991 11.2808 8.94252L9.84083 6.97667C9.77429 6.89798 9.77504 6.7862 9.80925 6.68583L10.6854 4.38902Z" fill="white"/>
</svg>
