<svg width="22" height="21" viewBox="0 0 22 21" fill="none" xmlns="http://www.w3.org/2000/svg">
<path d="M20.2085 9.93316C20.6341 9.56081 20.8204 9.02215 20.6543 8.51004C20.538 8.00126 20.1157 7.57224 19.5704 7.4857L14.7789 6.46411C14.5828 6.4009 14.3899 6.28781 14.3035 6.08163L12.4521 1.54907C12.236 1.03362 11.7572 0.701027 11.2086 0.664363C10.6599 0.627699 10.1411 0.893635 9.85841 1.37575L7.47357 5.57512C7.36048 5.76797 7.20418 5.85772 6.95146 5.89093L2.06666 6.26591C1.51133 6.32901 1.0391 6.64815 0.856139 7.13693C0.673175 7.62571 0.732933 8.23091 1.10862 8.60671L4.37342 12.2317C4.51305 12.3913 4.54959 12.5942 4.53626 12.7937L3.36837 17.5253C3.29182 17.921 3.36158 18.3766 3.59097 18.6925C4.00654 19.2213 4.69483 19.4176 5.31336 19.1583L9.75283 17.2004C9.95901 17.114 10.1585 17.1273 10.3514 17.2404L14.5407 19.7749C14.7336 19.888 14.9796 19.9545 15.1792 19.9679C15.5782 19.9945 15.9905 19.8217 16.3098 19.5424C16.5792 19.2598 16.7588 18.8209 16.6857 18.4152L16.1578 13.5703C16.1212 13.3675 16.2343 13.1746 16.394 13.035L20.2085 9.93316Z" fill="white"/>
</svg>
