<svg width="10" height="10" viewBox="0 0 10 10" fill="none" xmlns="http://www.w3.org/2000/svg">
<path d="M9.78095 4.32405C9.9809 4.12409 10.0559 3.84915 9.95591 3.59921C9.88093 3.34926 9.65597 3.14931 9.38103 3.12431L6.95657 2.77439C6.85659 2.74939 6.75661 2.6994 6.70662 2.59943L5.63186 0.399912C5.50689 0.149967 5.25694 0 4.98201 0C4.70707 0 4.45712 0.149967 4.33215 0.399912L3.28238 2.57443C3.23239 2.67441 3.15741 2.7244 3.03244 2.74939L0.60797 3.09932C0.33303 3.14931 0.10808 3.32427 0.0330964 3.57421C-0.0418871 3.82416 0.00810188 4.12409 0.208058 4.29905L1.95767 5.99868C2.03266 6.07366 2.05765 6.17364 2.05765 6.27362L1.63274 8.67309C1.60775 8.87304 1.65774 9.09799 1.78271 9.24796C2.00766 9.49791 2.35758 9.57289 2.65752 9.42292L4.80704 8.29817C4.90702 8.24818 5.007 8.24818 5.10698 8.29817L7.2815 9.42292C7.38148 9.47291 7.50645 9.49791 7.60643 9.49791C7.80638 9.49791 8.00634 9.39793 8.1563 9.24796C8.28128 9.09799 8.35626 8.87304 8.30627 8.67309L7.88137 6.27362C7.85637 6.17364 7.90636 6.07366 7.98134 5.99868L9.78095 4.32405Z" fill="white"/>
</svg>
