<svg width="27" height="27" viewBox="0 0 27 27" fill="none" xmlns="http://www.w3.org/2000/svg">
<path d="M21.8004 8.47531C21.9828 7.93999 21.8748 7.38036 21.4748 7.01997C21.1197 6.63753 20.5395 6.47713 20.024 6.67488L15.3637 8.18614C15.1622 8.2295 14.9387 8.22799 14.7607 8.09266L10.8909 5.09327C10.446 4.75494 9.86511 4.70632 9.37164 4.94892C8.87817 5.19153 8.56189 5.68124 8.55813 6.24012L8.59275 11.0693C8.59125 11.2929 8.50077 11.4487 8.29852 11.6039L4.2558 14.3712C3.80644 14.7036 3.55708 15.2161 3.64304 15.7309C3.72901 16.2456 4.08339 16.7398 4.59666 16.8774L9.23663 18.3841C9.43738 18.4525 9.57046 18.6099 9.65868 18.7894L11.0133 23.4709C11.1449 23.8519 11.4331 24.2115 11.7897 24.3704C12.414 24.6205 13.1082 24.4463 13.5142 23.9125L16.3798 19.9971C16.5151 19.8191 16.6946 19.7309 16.9181 19.7324L21.8135 19.8324C22.037 19.8339 22.2834 19.7685 22.4628 19.6803C22.8217 19.5038 23.0924 19.1479 23.2292 18.7464C23.3212 18.367 23.2573 17.8971 22.9911 17.5823L20.1112 13.6506C19.9781 13.4932 19.9797 13.2697 20.0481 13.0689L21.8004 8.47531Z" fill="white"/>
</svg>
